#!OML:ASF E:\Steps\Project 1\Capture day 1\Session 2\Subject.ASF
:FULLY-SPECIFIED
:DEGREES
327
root 12.2523 18.8902 16.8306 -151.561 4.51738 177.945
lowerback -24.9757 -2.77074 -6.9346
upperback -0.903497 -1.12741 -0.663423
thorax 13.1657 -0.736955 2.86612
lowerneck -2.75011 -2.56446 0.921205
upperneck 24.0822 -1.9376 0.952987
head 7.85775 -0.0347599 0.113869
rclavicle -1.49089e-015 1.70955e-014
rhumerus -41.6095 -7.77777 -80.5697
rradius 36.3733
rwrist -6.43555
rhand -8.72445 -47.3902
rfingers 7.12502
rthumb 17.2117 -76.648
lclavicle -1.49089e-015 1.70955e-014
lhumerus -31.6925 13.6457 75.8823
lradius 26.1053
lwrist -1.03709
lhand -23.8713 -13.5196
lfingers 7.12502
lthumb 2.60167 16.4443
rfemur -29.889 5.3523 21.3754
rtibia 14.1809
rfoot -19.5167 -4.98195
rtoes -9.46953
lfemur -28.0122 -9.34681 -19.9304
ltibia 8.86048
lfoot -5.03506 -8.02976
ltoes -16.6636
328
root 12.2504 18.8936 16.8168 -151.628 4.38535 178.016
lowerback -25.0976 -2.75716 -6.80944
upperback -0.948686 -1.13641 -0.621071
thorax 13.1785 -0.731575 2.83946
lowerneck -2.70815 -2.6329 0.934774
upperneck 23.7583 -2.10794 1.0757
head 7.74316 -0.124124 0.136995
rclavicle -5.96354e-016 3.89618e-014
rhumerus -41.665 -8.23963 -80.3866
rradius 36.2722
rwrist -6.30998
rhand -8.52357 -46.8411
rfingers 7.12502
rthumb 17.405 -76.0818
lclavicle -5.96354e-016 3.89618e-014
lhumerus -31.6287 13.5161 76.0954
lradius 25.8404
lwrist -0.843409
lhand -23.8666 -13.1524
lfingers 7.12502
lthumb 2.60619 16.8114
rfemur -29.8472 5.76027 21.2515
rtibia 14.3523
rfoot -19.214 -4.88232
rtoes -10.6616
lfemur -27.8484 -9.31054 -19.8647
ltibia 8.79851
lfoot -4.98229 -8.18147
ltoes -16.1822
329
root 12.2473 18.8938 16.8019 -151.606 4.32074 178.075
lowerback -25.3771 -2.78342 -6.65406
upperback -0.94377 -1.19328 -0.580064
thorax 13.3412 -0.751877 2.7734
lowerneck -2.80686 -2.67021 0.87391
upperneck 23.4015 -2.24991 1.19466
head 7.64443 -0.215705 0.171588
rclavicle 1.40143e-014 -1.43125e-014
rhumerus -41.5194 -8.54736 -80.2826
rradius 36.0843
rwrist -6.18621
rhand -8.4808 -47.8671
rfingers 7.12502
rthumb 17.4462 -77.1042
lclavicle 1.40143e-014 -1.43125e-014
lhumerus -31.5528 13.5843 76.2098
lradius 25.6316
lwrist -0.677035
lhand -23.5158 -12.889
lfingers 7.12502
lthumb 2.94499 17.0705
rfemur -29.9576 6.2498 21.0281
rtibia 14.5596
rfoot -19.0512 -4.73948
rtoes -11.7157
lfemur -27.7843 -9.23757 -19.837
ltibia 8.74362
lfoot -4.8653 -8.36549
ltoes -15.1823
330
root 12.2449 18.8933 16.7863 -151.602 4.22444 178.068
lowerback -25.572 -2.85674 -6.56995
upperback -1.06215 -1.28973 -0.533688
thorax 13.318 -0.780557 2.74373
lowerneck -3.20219 -2.62186 1.02311
upperneck 23.9752 -2.10636 0.956521
head 7.90218 -0.126846 0.0792719
rclavicle -2.98177e-016 -2.74323e-014
rhumerus -41.6979 -8.64428 -80.2201
rradius 36.0551
rwrist -6.36956
rhand -8.18817 -46.4136
rfingers 7.12502
rthumb 17.7278 -75.6255
lclavicle -2.98177e-016 -2.74323e-014
lhumerus -31.7615 13.7591 76.2107
lradius 25.4023
lwrist -0.671579
lhand -23.4106 -12.8635
lfingers 7.12502
lthumb 3.04654 17.0945
rfemur -30.029 6.82329 20.6889
rtibia 14.7289
rfoot -18.9861 -4.5297
rtoes -12.6567
lfemur -27.7205 -9.25635 -19.8603
ltibia 8.7227
lfoot -4.68469 -8.51619
ltoes -14.0692
331
root 12.2439 18.8957 16.7717 -151.664 4.03155 178.067
lowerback -25.637 -2.97244 -6.54836
upperback -1.15645 -1.45188 -0.415547
thorax 13.2618 -0.849263 2.80861
lowerneck -3.10636 -2.56501 1.00961
upperneck 23.5729 -2.05941 0.867295
head 7.74905 -0.139056 0.0530342
rclavicle -1.41137e-014 -2.38542e-015
rhumerus -41.8863 -8.67762 -80.0936
rradius 36.1174
rwrist -6.53591
rhand -8.39072 -46.4655
rfingers 7.12502
rthumb 17.5329 -75.6949
lclavicle -1.41137e-014 -2.38542e-015
lhumerus -31.8685 14.0952 76.2911
lradius 25.1039
lwrist -0.764428
lhand -23.5585 -12.8541
lfingers 7.12502
lthumb 2.90373 17.1058
rfemur -29.9637 7.3356 20.3852
rtibia 14.8058
rfoot -18.9157 -4.2606
rtoes -12.8896
lfemur -27.5981 -9.41222 -19.8133
ltibia 8.71571
lfoot -4.59802 -8.4511
ltoes -13.9627
332
root 12.2426 18.8985 16.76 -151.774 3.77563 178.061
lowerback -25.6121 -3.11124 -6.52664
upperback -1.2225 -1.65893 -0.282959
thorax 13.1948 -0.942008 2.87373
lowerneck -3.18438 -2.37399 1.05682
upperneck 23.4561 -1.79302 0.729078
head 7.7221 -0.0300684 0.0175701
rclavicle -3.97569e-016 -2.90226e-014
rhumerus -41.962 -8.80234 -79.9189
rradius 36.0569
rwrist -6.48123
rhand -8.71733 -47.7552
rfingers 7.12502
rthumb 17.2185 -77.0123
lclavicle -3.97569e-016 -2.90226e-014
lhumerus -31.9741 14.4228 76.4014
lradius 24.8354
lwrist -0.904192
lhand -23.7372 -12.8451
lfingers 7.12502
lthumb 2.73112 17.1171
rfemur -29.7798 7.83586 20.0888
rtibia 14.7597
rfoot -18.9547 -4.18845
rtoes -13.3912
lfemur -27.4762 -9.4858 -19.7834
ltibia 8.74823
lfoot -4.6105 -8.50645
ltoes -14.7465
333
root 12.2402 18.9002 16.7505 -151.848 3.52415 178.07
lowerback -25.5313 -3.22528 -6.45544
upperback -1.36317 -1.84293 -0.16938
thorax 13.0059 -1.01197 2.90029
lowerneck -3.21476 -2.45828 1.09811
upperneck 23.3481 -1.9225 0.642198
head 7.68977 -0.10504 -0.0289874
rclavicle 4.87022e-015 1.19271e-015
rhumerus -42.0851 -9.14559 -79.7215
rradius 35.9389
rwrist -6.2962
rhand -8.71741 -47.5338
rfingers 7.12502
rthumb 17.2184 -76.7909
lclavicle 4.87022e-015 1.19271e-015
lhumerus -32.1475 14.6239 76.459
lradius 24.4548
lwrist -1.17515
lhand -23.9423 -12.8272
lfingers 7.12502
lthumb 2.5331 17.1375
rfemur -29.6094 8.19209 19.8534
rtibia 14.6259
rfoot -18.8897 -3.95687
rtoes -14.2907
lfemur -27.4275 -9.44551 -19.777
ltibia 8.83333
lfoot -4.62402 -8.82741
ltoes -15.1154
334
root 12.237 18.8998 16.739 -151.891 3.25963 178.12
lowerback -25.763 -3.32617 -6.28143
upperback -1.34715 -2.01934 -0.0718944
thorax 13.1662 -1.08868 2.84237
lowerneck -3.15646 -2.43247 1.10831
upperneck 22.9465 -1.9224 0.532177
head 7.54439 -0.140282 -0.0694455
rclavicle 1.45113e-014 5.56597e-015
rhumerus -41.9697 -9.43903 -79.6394
rradius 35.8297
rwrist -6.26485
rhand -8.61691 -47.7433
rfingers 7.12502
rthumb 17.3152 -76.992
lclavicle 1.45113e-014 5.56597e-015
lhumerus -31.9879 14.8796 76.4954
lradius 23.9473
lwrist -1.46548
lhand -23.9072 -13.0775
lfingers 7.12502
lthumb 2.56696 16.8868
rfemur -29.4341 8.56194 19.6652
rtibia 14.4533
rfoot -18.8209 -3.68507
rtoes -15.7581
lfemur -27.3543 -9.48065 -19.7138
ltibia 8.83994
lfoot -4.58294 -9.08412
ltoes -15.0899
335
root 12.2319 18.8958 16.7226 -151.904 3.05202 178.165
lowerback -26.0406 -3.43595 -6.11128
upperback -1.35451 -2.20501 0.0533468
thorax 13.326 -1.16829 2.81389
lowerneck -3.1544 -2.39514 1.01357
upperneck 22.6089 -1.90574 0.489919
head 7.43301 -0.167601 -0.0685726
rclavicle -2.78299e-015 5.56597e-015
rhumerus -41.9736 -9.40486 -79.5578
rradius 35.8155
rwrist -6.46456
rhand -8.18525 -47.3307
rfingers 7.12502
rthumb 17.7306 -76.5423
lclavicle -2.78299e-015 5.56597e-015
lhumerus -31.96 15.1416 76.5699
lradius 23.56
lwrist -1.68045
lhand -23.6377 -13.373
lfingers 7.12502
lthumb 2.82721 16.588
rfemur -29.2965 9.05371 19.4042
rtibia 14.3344
rfoot -18.9181 -3.7465
rtoes -18.777
lfemur -27.2484 -9.68506 -19.6214
ltibia 8.7447
lfoot -4.56666 -9.12357
ltoes -14.701
336
root 12.2353 18.8917 16.716 -151.718 2.93985 178.24
lowerback -26.3464 -3.48763 -5.99729
upperback -1.46483 -2.27559 0.133239
thorax 13.3687 -1.18474 2.81093
lowerneck -3.26592 -2.35964 1.13016
upperneck 22.3843 -1.90876 0.463497
head 7.37719 -0.179301 -0.0997167
rclavicle -3.10104e-014 -1.11319e-014
rhumerus -42.127 -9.63237 -79.4561
rradius 35.8313
rwrist -6.35118
rhand -7.9612 -47.133
rfingers 7.12502
rthumb 17.9462 -76.325
lclavicle -3.10104e-014 -1.11319e-014
lhumerus -31.9038 15.3852 76.5694
lradius 23.1498
lwrist -2.19975
lhand -23.4261 -13.3716
lfingers 7.12502
lthumb 3.03163 16.5866
rfemur -29.4973 9.56754 19.2239
rtibia 14.3487
rfoot -19.0799 -4.00565
rtoes -21.8242
lfemur -27.4286 -9.48155 -19.543
ltibia 8.7475
lfoot -4.49803 -9.51816
ltoes -13.8838
337
root 12.2387 18.8863 16.7101 -151.482 2.90801 178.347
lowerback -26.6982 -3.49997 -5.86725
upperback -1.57182 -2.29503 0.210114
thorax 13.4337 -1.17695 2.81367
lowerneck -3.31827 -2.22152 1.18752
upperneck 22.0298 -1.76344 0.394982
head 7.26914 -0.134572 -0.123999
rclavicle -5.1684e-015 -1.59028e-015
rhumerus -42.2503 -9.82068 -79.409
rradius 35.8653
rwrist -6.20719
rhand -8.44632 -48.6651
rfingers 7.12502
rthumb 17.4794 -77.8992
lclavicle -5.1684e-015 -1.59028e-015
lhumerus -31.7622 15.6687 76.5547
lradius 22.7582
lwrist -2.80124
lhand -23.342 -13.2571
lfingers 7.12502
lthumb 3.11278 16.6999
rfemur -29.7832 10.0372 19.0713
rtibia 14.3748
rfoot -19.21 -4.16738
rtoes -23.5933
lfemur -27.6274 -9.39218 -19.3957
ltibia 8.68949
lfoot -4.50852 -9.62374
ltoes -14.3367
